# xmcd
#
# Track frame offsets:
#	150
#	11442
#	22177
#	30477
#	38762
#	49452
#	57962
#	70397
#	82015
#	92807
#	103415
#	113940
#	126832
#	137695
#	150380
#	161105
#	174675
#	186400
#	198990
#	209545
#	217900
#	228800
#	241062
#	253780
#
# Disc length: 3518 seconds
#
# Revision: 1
# Processed by: cddbd v1.4b41PL2 Copyright (c) Steve Scherf et al.
# Submitted via: audiograbber 1.80
#
DISCID=590dbc18
DTITLE=Various Artist - 30 Years Of No. 1 Country Hits Disc #2
DYEAR=1900
DGENRE=
TTITLE0=Don Gibson - Oh, Lonesome Me
TTITLE1=Ferlin Husky  - Gone
TTITLE2=Elvis Presley - (Let Me Be Your) Teddy Bear
TTITLE3=Johnny Cash - Guess Things Happen That Way
TTITLE4=Everly Brothers - Bye Bye Love
TTITLE5=Jerry Lee Lewis - Great Balls Of Fire
TTITLE6=George Jones - White Lightning
TTITLE7=Faron Young - Country Girl
TTITLE8=Hank Locklin - Please Help Me I'm Falling (In Love With You)
TTITLE9=Jim Reeves - He'll Have To Go
TTITLE10=Ferlin Husky - Wings Of A Dove
TTITLE11=Browns, The - The Three Bells
TTITLE12=Faron Young - Hello Walls
TTITLE13=Patsy Cline  - I Fall To Pieces
TTITLE14=Leroy Van Dyke - Walk On By
TTITLE15=Patsy Cline - She's Got You
TTITLE16=George Jones - She Still Thinks I Care
TTITLE17=Hank Snow - I've Been Everywhere
TTITLE18=Connie Smith - Once A Day
TTITLE19=Roger Miller - Dang Me
TTITLE20=Jim Reeves - I Guess I'm Crazy
TTITLE21=Hawkshaw Hawkins - Lonesome 7-7203
TTITLE22=Bill Anderson - Still
TTITLE23=George Hamilton IV - Abilene
EXTD=
EXTT0=
EXTT1=
EXTT2=
EXTT3=
EXTT4=
EXTT5=
EXTT6=
EXTT7=
EXTT8=
EXTT9=
EXTT10=
EXTT11=
EXTT12=
EXTT13=
EXTT14=
EXTT15=
EXTT16=
EXTT17=
EXTT18=
EXTT19=
EXTT20=
EXTT21=
EXTT22=
EXTT23=
PLAYORDER=
